<?xml version="1.0" standalone="no"?>
<!DOCTYPE svg PUBLIC "-//W3C//DTD SVG 20010904//EN"
 "http://www.w3.org/TR/2001/REC-SVG-20010904/DTD/svg10.dtd">
<svg version="1.0" xmlns="http://www.w3.org/2000/svg"
 width="512.000000pt" height="512.000000pt" viewBox="0 0 512.000000 512.000000"
 preserveAspectRatio="xMidYMid meet">
<metadata>
Created by potrace 1.14, written by Peter Selinger 2001-2017
</metadata>
<g transform="translate(0.000000,512.000000) scale(0.100000,-0.100000)"
fill="#000000" stroke="none">
<path d="M2245 4535 c-5 -2 -22 -6 -37 -9 -61 -14 -96 -77 -114 -209 -17 -119
-38 -171 -87 -214 -43 -38 -83 -50 -199 -62 -119 -12 -154 -33 -207 -127 -90
-158 -178 -167 -358 -37 -135 97 -145 103 -180 103 -40 0 -67 -12 -105 -48
-41 -38 -37 -77 23 -204 28 -59 53 -125 56 -146 10 -73 -50 -99 -210 -90 -73
4 -92 10 -175 52 -121 61 -151 64 -282 31 -58 -15 -152 -31 -210 -35 -100 -8
-105 -9 -132 -39 -26 -29 -28 -38 -28 -109 0 -139 44 -228 132 -271 24 -11
111 -39 193 -61 262 -72 368 -125 498 -249 122 -117 284 -368 327 -506 27 -89
27 -158 0 -410 -24 -233 -47 -339 -95 -446 -36 -79 -43 -133 -22 -159 7 -9 37
-31 67 -50 30 -19 68 -45 84 -58 44 -35 155 -89 222 -106 75 -19 188 -33 384
-46 178 -13 241 -25 400 -76 151 -48 249 -56 313 -25 75 37 114 102 142 239
25 124 69 151 260 159 132 6 242 -11 404 -62 135 -42 233 -46 355 -15 191 49
372 190 400 313 9 40 -6 61 -76 100 -111 63 -158 130 -158 228 0 29 12 113 26
188 42 221 27 348 -49 419 -13 13 -58 40 -98 61 -103 52 -103 65 -2 167 142
144 245 298 373 559 101 207 120 282 84 333 -22 32 -57 47 -223 97 -517 156
-1010 398 -1437 706 -118 85 -213 126 -259 114z"/>
<path d="M4955 1144 c-102 -86 -161 -159 -171 -211 -17 -93 35 -250 106 -318
62 -59 158 -24 204 74 19 42 21 63 21 236 l0 190 -30 52 c-16 29 -32 53 -35
53 -3 -1 -45 -35 -95 -76z"/>
</g>
</svg>
